<svg width="94" height="94" viewBox="0 0 94 94" fill="none" xmlns="http://www.w3.org/2000/svg">
<path d="M58.75 82.25V50.9167C58.75 49.8779 58.3374 48.8817 57.6028 48.1472C56.8683 47.4126 55.8721 47 54.8333 47H39.1667C38.1279 47 37.1317 47.4126 36.3972 48.1472C35.6626 48.8817 35.25 49.8779 35.25 50.9167V82.25" stroke="#666666" stroke-width="5" stroke-linecap="round" stroke-linejoin="round"/>
<path d="M11.75 39.1667C11.7497 38.0272 11.9981 36.9014 12.4777 35.8677C12.9573 34.8341 13.6566 33.9175 14.5269 33.182L41.9436 9.68592C43.3574 8.49098 45.1488 7.83537 47 7.83537C48.8512 7.83537 50.6426 8.49098 52.0564 9.68592L79.4731 33.182C80.3434 33.9175 81.0427 34.8341 81.5223 35.8677C82.0019 36.9014 82.2503 38.0272 82.25 39.1667V74.4167C82.25 76.4942 81.4247 78.4866 79.9557 79.9557C78.4866 81.4247 76.4942 82.25 74.4167 82.25H19.5833C17.5058 82.25 15.5134 81.4247 14.0443 79.9557C12.5753 78.4866 11.75 76.4942 11.75 74.4167V39.1667Z" stroke="#666666" stroke-width="5" stroke-linecap="round" stroke-linejoin="round"/>
</svg>
