<svg width="94" height="94" viewBox="0 0 94 94" fill="none" xmlns="http://www.w3.org/2000/svg">
<path d="M47 47H47.0392" stroke="#7E0000" stroke-width="5" stroke-linecap="round" stroke-linejoin="round"/>
<path d="M62.6667 23.5V15.6667C62.6667 13.5891 61.8414 11.5967 60.3724 10.1277C58.9033 8.65863 56.9109 7.83333 54.8334 7.83333H39.1667C37.0892 7.83333 35.0967 8.65863 33.6277 10.1277C32.1587 11.5967 31.3334 13.5891 31.3334 15.6667V23.5" stroke="#7E0000" stroke-width="5" stroke-linecap="round" stroke-linejoin="round"/>
<path d="M86.1667 50.9167C74.5451 58.5893 60.9259 62.6796 47 62.6796C33.0741 62.6796 19.4549 58.5893 7.83337 50.9167" stroke="#7E0000" stroke-width="5" stroke-linecap="round" stroke-linejoin="round"/>
<path d="M78.3334 23.5H15.6667C11.3405 23.5 7.83337 27.0071 7.83337 31.3333V70.5C7.83337 74.8262 11.3405 78.3333 15.6667 78.3333H78.3334C82.6596 78.3333 86.1667 74.8262 86.1667 70.5V31.3333C86.1667 27.0071 82.6596 23.5 78.3334 23.5Z" stroke="#7E0000" stroke-width="5" stroke-linecap="round" stroke-linejoin="round"/>
</svg>
